<?xml version="1.0" standalone="no"?>
<!DOCTYPE svg PUBLIC "-//W3C//DTD SVG 20010904//EN"
 "http://www.w3.org/TR/2001/REC-SVG-20010904/DTD/svg10.dtd">
<svg version="1.0" xmlns="http://www.w3.org/2000/svg"
 width="94.000000pt" height="94.000000pt" viewBox="0 0 94.000000 94.000000"
 preserveAspectRatio="xMidYMid meet">
<metadata>
Created by potrace 1.11, written by Peter Selinger 2001-2013
</metadata>
<g transform="translate(0.000000,94.000000) scale(0.100000,-0.100000)"
fill="#000000" stroke="none">
<path d="M457 884 c-9 -9 -9 -236 -1 -258 9 -24 43 -20 49 7 3 12 4 74 3 137
-3 107 -4 115 -23 118 -12 2 -24 0 -28 -4z"/>
<path d="M260 770 c-8 -11 -21 -20 -30 -20 -16 0 -120 -93 -120 -108 0 -32 45
-12 88 39 13 16 29 29 36 29 6 0 27 14 45 31 27 25 31 33 20 40 -20 12 -23 12
-39 -11z"/>
<path d="M661 781 c-11 -7 -7 -15 20 -40 18 -17 39 -31 46 -31 6 0 20 -14 30
-30 9 -17 22 -29 27 -27 5 2 18 -5 28 -15 18 -18 38 -17 38 3 0 17 -102 109
-120 109 -8 0 -22 9 -30 20 -16 23 -19 23 -39 11z"/>
<path d="M330 724 c-12 -30 -13 -74 -2 -74 4 0 15 20 24 44 14 38 15 45 2 50
-9 4 -18 -4 -24 -20z"/>
<path d="M602 738 c-7 -9 -6 -18 4 -32 8 -11 14 -28 14 -38 0 -27 17 -22 22 7
7 32 -24 81 -40 63z"/>
<path d="M270 637 c0 -5 -4 -5 -10 -2 -6 4 -10 -17 -10 -54 0 -34 3 -61 8 -61
4 0 44 -2 90 -4 51 -2 85 1 89 7 7 12 5 82 -2 107 -4 12 -22 15 -85 15 -44 0
-80 -4 -80 -8z m128 -56 c-3 -22 -8 -25 -43 -27 -46 -2 -75 10 -75 31 0 17 10
20 71 20 47 0 50 -1 47 -24z"/>
<path d="M518 592 c-2 -30 0 -59 4 -66 5 -9 33 -12 95 -10 l88 2 3 43 c6 82 5
84 -97 84 l-89 0 -4 -53z m153 -5 c17 -30 -6 -44 -38 -24 -7 5 -13 4 -13 0 0
-15 -50 -13 -56 2 -12 30 3 42 51 41 33 -1 49 -6 56 -19z"/>
<path d="M427 502 c-21 -4 -22 -28 -1 -36 20 -8 88 -8 108 0 19 7 21 34 4 35
-55 3 -96 4 -111 1z"/>
<path d="M421 424 c-19 -22 -9 -27 59 -27 68 0 79 5 57 28 -20 20 -97 19 -116
-1z"/>
<path d="M256 372 c-3 -3 -6 -29 -6 -57 0 -57 16 -81 48 -71 15 5 20 2 20 -16
0 -38 20 -78 35 -72 12 4 12 11 2 42 -16 46 -11 55 27 50 16 -3 31 0 35 5 3 5
9 3 14 -4 6 -10 9 -4 10 19 4 114 5 112 -97 111 -45 -1 -85 -4 -88 -7z m144
-57 c0 -24 -3 -25 -54 -25 -40 0 -55 4 -60 16 -12 30 -6 34 54 34 57 0 60 -1
60 -25z"/>
<path d="M521 313 l2 -68 48 1 c52 1 57 -5 36 -46 -11 -21 -11 -28 -1 -38 11
-10 16 -8 24 9 6 11 12 33 12 49 1 25 4 29 23 24 33 -8 47 17 43 78 l-3 53
-93 3 -93 3 2 -68z m153 11 c12 -30 6 -34 -54 -34 -57 0 -60 1 -60 25 0 24 3
25 54 25 40 0 55 -4 60 -16z"/>
<path d="M455 268 c-3 -13 -4 -75 -3 -138 l3 -115 25 0 25 0 3 115 c3 135 -1
160 -28 160 -12 0 -22 -9 -25 -22z"/>
<path d="M113 264 c-7 -18 91 -114 117 -114 9 0 22 -9 30 -20 16 -23 19 -23
40 -10 12 8 9 15 -20 40 -19 16 -40 30 -46 30 -7 0 -19 11 -28 25 -9 14 -22
25 -29 25 -7 0 -18 9 -25 20 -15 24 -30 26 -39 4z"/>
<path d="M781 235 c-25 -25 -50 -45 -57 -45 -6 0 -26 -14 -43 -32 -27 -27 -29
-33 -16 -41 12 -6 22 -3 34 12 10 12 25 21 32 21 25 1 122 97 116 114 -9 24
-18 20 -66 -29z"/>
</g>
</svg>
